<svg xmlns="http://www.w3.org/2000/svg" viewBox="291 -194 231.8 40.001"><defs><style>.a{fill:none;}.b{fill:#303030;}</style></defs><g transform="translate(291 -194)"><rect class="a" width="129.1" height="40" transform="translate(102.7)"/><path class="b" d="M191.8,170H-40V130H191.8v40ZM80.5,133v34H188.8V133H80.5Zm-110.6,6.9v10.9c0,3.119.74,5.474,2.2,7a8.483,8.483,0,0,0,6.4,2.3c2.986,0,5.24-.774,6.7-2.3s2.2-3.915,2.2-7.1l-.1-10.8h-6V151a4.872,4.872,0,0,1-.7,2.9,2.4,2.4,0,0,1-1.948,1l-.154,0a2.3,2.3,0,0,1-1.9-1,5.189,5.189,0,0,1-.7-2.9V139.9Zm40.6,0v19.9h8.9q.312.02.622.021A9.371,9.371,0,0,0,25.3,158.2a5.4,5.4,0,0,0,2.1-4.5h.1a4,4,0,0,0-.6-2.2,5.025,5.025,0,0,0-1.7-1.7,6.26,6.26,0,0,0-2.5-.8,6.387,6.387,0,0,0,2.2-.9,4.519,4.519,0,0,0,1.5-1.5,3.807,3.807,0,0,0,.5-1.9c0-3.185-2.658-4.8-7.9-4.8Zm46.4,8.2H57l1.3,2.1,7,9.6h5.4V139.9H65.1v8.8a18.258,18.258,0,0,0,.1,2.1l-.3-.4-.3-.5-.4-.5-.3-.4-6.7-9.1H51.5v19.9H57v-8.4c0-1.193-.034-2.3-.1-3.3Zm-21.1,8h5.8l.9,3.7h6.6l-6.5-19.9H35.2l-6.8,19.9h6.5l.9-3.7Zm-38.6-3.3h.2a2,2,0,0,1,1.5.7,5.33,5.33,0,0,1,1.1,2l1.4,4.3h7l-2-5.1a7.75,7.75,0,0,0-1.5-2.6,4.793,4.793,0,0,0-2.1-1.3,6.572,6.572,0,0,0,3.4-2,5.2,5.2,0,0,0,1.2-3.4,4.616,4.616,0,0,0-2-4.1c-1.327-.929-3.413-1.4-6.2-1.4h-8v19.9h6v-7Zm21.4,3h0l-.1,0h-2v-4.1h2.2l.111,0a2.4,2.4,0,0,1,1.589.6,1.8,1.8,0,0,1,.6,1.4h.1a1.885,1.885,0,0,1-.7,1.5A3.017,3.017,0,0,1,18.6,155.8Zm22-3.9H36.8l1.7-6.6a9.849,9.849,0,0,0,.2-1.1c.082.345.152.689.223,1.031.088.428.175.852.278,1.269l1.4,5.4Zm-42.313-3.3H-2.9V144h1.2q.1-.007.195-.007A2.7,2.7,0,0,1,.2,144.6a2.1,2.1,0,0,1,.6,1.6,2.2,2.2,0,0,1-.7,1.7A2.689,2.689,0,0,1-1.713,148.6Zm20.011-.8h0l-.1,0H16.5V144h1c1.925,0,2.9.606,2.9,1.8a1.792,1.792,0,0,1-.6,1.5A2.516,2.516,0,0,1,18.3,147.8Z" transform="translate(40 -130)"/><path class="b" d="M144.8,23.9a5.7,5.7,0,0,1-1,3.4,6.2,6.2,0,0,1-2.9,2.2,12.9,12.9,0,0,1-4.5.7,14.8,14.8,0,0,1-5.6-1V23.7a11.1,11.1,0,0,0,2.7,1.5,8,8,0,0,0,2.8.6,2.7,2.7,0,0,0,1.5-.3,1.1,1.1,0,0,0,.5-1,1.4,1.4,0,0,0-.3-.8l-.8-.7-2-.9q-4.7-1.8-4.7-5.9a5.5,5.5,0,0,1,2.2-4.5,9.1,9.1,0,0,1,5.8-1.7h1.9l1.6.2,2,.5v5a10.1,10.1,0,0,0-4.9-1.4,3,3,0,0,0-1.6.4,1.1,1.1,0,0,0-.6,1,1.3,1.3,0,0,0,.5,1,9.1,9.1,0,0,0,2,1,11.2,11.2,0,0,1,4.3,2.7,5.1,5.1,0,0,1,1.1,3.5Zm15.1,5.9V22.5h-6.8v7.3h-5.9V10.2h5.9v7.3h6.8V10.2h5.9V29.8ZM188.3,20a10.8,10.8,0,0,1-1.3,5.3,9.1,9.1,0,0,1-3.5,3.6,10.7,10.7,0,0,1-10.1,0,8.8,8.8,0,0,1-3.5-3.5,10.4,10.4,0,0,1-1.3-5.1,11.3,11.3,0,0,1,1.3-5.4,9,9,0,0,1,3.6-3.7,10.4,10.4,0,0,1,5.2-1.3,10.1,10.1,0,0,1,5,1.3,8.5,8.5,0,0,1,3.4,3.6,11.2,11.2,0,0,1,1.1,5.1Zm-6.3.2a6.8,6.8,0,0,0-.9-3.8,2.9,2.9,0,0,0-2.5-1.4,3.2,3.2,0,0,0-2.7,1.3,6.3,6.3,0,0,0-1,3.8,6.2,6.2,0,0,0,1,3.7,3.1,3.1,0,0,0,2.7,1.3,3,3,0,0,0,1.8-.6,3.8,3.8,0,0,0,1.3-1.7,7.1,7.1,0,0,0,.4-2.7Zm9,9.7V10.2h12.2v4.6h-6.3v2.9h5.9v4.6h-5.9v2.9h6.7v4.6ZM220,24a5.7,5.7,0,0,1-1,3.4,6.2,6.2,0,0,1-2.9,2.2,12.9,12.9,0,0,1-4.5.7,14.8,14.8,0,0,1-5.6-1V23.7a11.1,11.1,0,0,0,2.7,1.5,8,8,0,0,0,2.8.6,2.7,2.7,0,0,0,1.5-.3,1.1,1.1,0,0,0,.5-1,1.4,1.4,0,0,0-.3-.8l-.8-.7-2-.9q-4.7-1.8-4.7-5.9a5.5,5.5,0,0,1,2.2-4.5,9.1,9.1,0,0,1,5.8-1.7h1.9l1.6.2,2,.5v5a10.1,10.1,0,0,0-4.9-1.4,3,3,0,0,0-1.6.4,1.1,1.1,0,0,0-.6,1,1.3,1.3,0,0,0,.5,1,9.1,9.1,0,0,0,2,1,11.2,11.2,0,0,1,4.3,2.7,5.1,5.1,0,0,1,1.1,3.5Z"/></g></svg>