<svg xmlns="http://www.w3.org/2000/svg" viewBox="0 -426.021 450 77.653"><defs><style>.a{fill:none;}.b{fill:#f2f2f2;}</style></defs><g transform="translate(0 -426.021)"><rect class="a" width="250.626" height="77.653" transform="translate(199.375)"/><path class="b" d="M450,77.653H0V0H450ZM233.931,5.823V71.829H444.176V5.824H233.931ZM19.219,19.219v21.16c0,6.055,1.437,10.627,4.272,13.59s7.014,4.464,12.425,4.464c5.8,0,10.172-1.5,13.006-4.464s4.271-7.6,4.271-13.784L53,19.219H41.35V40.768A9.458,9.458,0,0,1,39.991,46.4a4.669,4.669,0,0,1-3.784,1.942h-.1l-.2,0A4.458,4.458,0,0,1,32.226,46.4a10.058,10.058,0,0,1-1.359-5.629V19.219Zm96.095,38.632q.6.04,1.208.04a18.182,18.182,0,0,0,10.246-3.146,10.5,10.5,0,0,0,4.076-8.737h.194a7.74,7.74,0,0,0-1.164-4.271,9.751,9.751,0,0,0-3.3-3.3,12.169,12.169,0,0,0-4.854-1.553,12.408,12.408,0,0,0,4.272-1.746,8.8,8.8,0,0,0,2.912-2.913,7.388,7.388,0,0,0,.97-3.689c0-6.183-5.16-9.317-15.336-9.317h-16.5V57.852Zm31.839-7.184h11.259l1.747,7.184h12.812L160.353,19.219H145.988l-13.2,38.632h12.619l1.747-7.183ZM72.218,44.263h.388a3.883,3.883,0,0,1,2.912,1.359A10.362,10.362,0,0,1,77.653,49.5l2.718,8.348H93.96l-3.882-9.9A15.11,15.11,0,0,0,87.166,42.9a9.341,9.341,0,0,0-4.078-2.523,12.749,12.749,0,0,0,6.6-3.882,10.1,10.1,0,0,0,2.329-6.6,8.966,8.966,0,0,0-3.882-7.959c-2.576-1.8-6.625-2.718-12.036-2.718H60.569V57.852H72.217V44.263ZM177.631,19.219V57.852h10.677V41.544c0-2.312-.065-4.467-.193-6.4h.193l2.524,4.076,13.589,18.637H214.9V19.219H204.033V36.3a35.405,35.405,0,0,0,.194,4.076h-.194l-.387-.777-.583-.97-.777-.97-.582-.777L188.7,19.219ZM113.754,50.09l-.186,0h-3.883v-7.96h4.271c.072,0,.144,0,.215,0a4.651,4.651,0,0,1,3.085,1.169,3.482,3.482,0,0,1,1.165,2.717h.194a3.663,3.663,0,0,1-1.359,2.912A5.865,5.865,0,0,1,113.754,50.09Zm42.717-7.574h-7.377l3.3-12.814a18.985,18.985,0,0,0,.387-2.135h.194a33.318,33.318,0,0,0,.777,4.464l2.717,10.483Zm-82.149-6.4-.164,0H72.023v-8.93h2.33q.189-.013.377-.013a5.249,5.249,0,0,1,3.311,1.178,4.081,4.081,0,0,1,1.166,3.106,4.273,4.273,0,0,1-1.359,3.3A5.234,5.234,0,0,1,74.322,36.112Zm38.854-1.552h0l-.189,0h-3.3V27.179h1.942c3.735,0,5.629,1.176,5.629,3.494v.194a3.313,3.313,0,0,1-1.164,2.718A4.876,4.876,0,0,1,113.176,34.559Z" transform="translate(0)"/><path class="b" d="M158.262,37.08a11.066,11.066,0,0,1-1.941,6.6,12.036,12.036,0,0,1-5.63,4.271,25.043,25.043,0,0,1-8.736,1.359,28.732,28.732,0,0,1-10.871-1.941V36.692a21.548,21.548,0,0,0,5.242,2.912,15.53,15.53,0,0,0,5.436,1.165,5.242,5.242,0,0,0,2.912-.582,2.135,2.135,0,0,0,.971-1.941,2.718,2.718,0,0,0-.582-1.553l-1.553-1.359-3.883-1.747Q130.5,30.091,130.5,22.132a10.677,10.677,0,0,1,4.271-8.736,17.666,17.666,0,0,1,11.26-3.3h3.689l3.106.388,3.883.971v9.707a19.608,19.608,0,0,0-9.513-2.718,5.824,5.824,0,0,0-3.106.777,2.135,2.135,0,0,0-1.165,1.941A2.524,2.524,0,0,0,143.9,23.1a17.667,17.667,0,0,0,3.883,1.941,21.743,21.743,0,0,1,8.348,5.242,9.9,9.9,0,0,1,2.135,6.795Zm29.314,11.454V34.362h-13.2V48.534H162.921V10.484h11.454V24.655h13.2V10.484H199.03v38.05ZM242.71,29.509A20.967,20.967,0,0,1,240.186,39.8a17.666,17.666,0,0,1-6.795,6.989,20.772,20.772,0,0,1-19.607,0,17.083,17.083,0,0,1-6.795-6.795,20.19,20.19,0,0,1-2.524-9.9,21.937,21.937,0,0,1,2.524-10.483,17.472,17.472,0,0,1,6.989-7.183A20.19,20.19,0,0,1,224.073,9.9a19.607,19.607,0,0,1,9.707,2.524,16.5,16.5,0,0,1,6.6,6.989,21.743,21.743,0,0,1,2.135,9.9Zm-12.23.388a13.2,13.2,0,0,0-1.747-7.377,5.63,5.63,0,0,0-4.853-2.718,6.212,6.212,0,0,0-5.242,2.524A12.23,12.23,0,0,0,216.7,29.7a12.036,12.036,0,0,0,1.941,7.183,6.018,6.018,0,0,0,5.242,2.524,5.824,5.824,0,0,0,3.494-1.165,7.377,7.377,0,0,0,2.524-3.3,13.783,13.783,0,0,0,.776-5.242Zm17.472,18.831V10.484h23.684v8.93h-12.23v5.63h11.454v8.93H259.405V39.6h13.007v8.93Zm56.3-11.454a11.066,11.066,0,0,1-1.941,6.6,12.036,12.036,0,0,1-5.63,4.271,25.043,25.043,0,0,1-8.736,1.359,28.732,28.732,0,0,1-10.871-1.941V36.692a21.549,21.549,0,0,0,5.242,2.912,15.531,15.531,0,0,0,5.436,1.165,5.241,5.241,0,0,0,2.912-.582,2.135,2.135,0,0,0,.971-1.941,2.718,2.718,0,0,0-.582-1.553L289.5,35.333l-3.883-1.747q-9.124-3.494-9.124-11.454A10.677,10.677,0,0,1,280.76,13.4a17.666,17.666,0,0,1,11.26-3.3h3.689l3.106.388,3.883.971v9.707a19.607,19.607,0,0,0-9.513-2.718,5.824,5.824,0,0,0-3.106.777,2.135,2.135,0,0,0-1.165,1.941,2.523,2.523,0,0,0,.971,1.941,17.665,17.665,0,0,0,3.883,1.941,21.744,21.744,0,0,1,8.348,5.242,9.9,9.9,0,0,1,2.135,6.795Z" transform="translate(122.843 9.318)"/></g></svg>